<svg xmlns="http://www.w3.org/2000/svg" xmlns:xlink="http://www.w3.org/1999/xlink" width="500" zoomAndPan="magnify" viewBox="0 0 375 374.999991" height="500" preserveAspectRatio="xMidYMid meet" version="1.0"><defs><g/><clipPath id="8e49292522"><rect x="0" width="246" y="0" height="281"/></clipPath></defs><rect x="-37.5" width="450" fill="#ffffff" y="-37.499999" height="449.999989" fill-opacity="1"/><rect x="-37.5" width="450" fill="#f6f4f0" y="-37.499999" height="449.999989" fill-opacity="1"/><g transform="matrix(1, 0, 0, 1, 56, 47)"><g clip-path="url(#8e49292522)"><g fill="#222222" fill-opacity="1"><g transform="translate(2.461864, 227.986373)"><g><path d="M 177.84375 0.234375 L 132.453125 0.234375 L 100.015625 -62.125 L 60.640625 -62.125 L 60.640625 0 L 21.15625 0 L 21.15625 -180.6875 L 112.53125 -180.6875 C 125.582031 -180.6875 136.734375 -178.164062 145.984375 -173.125 C 155.242188 -168.082031 162.316406 -161.046875 167.203125 -152.015625 C 172.097656 -142.984375 174.546875 -132.441406 174.546875 -120.390625 C 174.546875 -107.109375 171.566406 -95.859375 165.609375 -86.640625 C 159.660156 -77.429688 151.144531 -70.773438 140.0625 -66.671875 Z M 60.640625 -147.125 L 60.640625 -95.6875 L 106.046875 -95.6875 C 116.441406 -95.6875 123.914062 -97.960938 128.46875 -102.515625 C 133.019531 -107.066406 135.296875 -113.363281 135.296875 -121.40625 C 135.296875 -129.675781 132.960938 -136.03125 128.296875 -140.46875 C 123.628906 -144.90625 116.210938 -147.125 106.046875 -147.125 Z M 60.640625 -147.125 "/></g></g></g><g fill="#222222" fill-opacity="1"><g transform="translate(172.626694, 227.986373)"><g><path d="M 23.4375 0 L 23.4375 -41.421875 L 64.515625 -41.421875 L 64.515625 0 Z M 23.4375 0 "/></g></g></g></g></g></svg>